<?xml version="1.0" encoding="UTF-8"?>
<svg xmlns="http://www.w3.org/2000/svg" width="25" height="24" viewBox="0 0 25 24" fill="none">
  <g clip-path="url(#clip0_747_1385)">
    <path d="M24.5139 12.0001C24.5139 5.36885 19.1382 -0.00683594 12.5069 -0.00683594C5.87568 -0.00683594 0.5 5.36885 0.5 12.0001C0.5 17.993 4.89074 22.9604 10.6309 23.8612V15.4709H7.58222V12.0001H10.6309V9.35482C10.6309 6.34558 12.4234 4.68337 15.166 4.68337C16.4793 4.68337 17.8538 4.91788 17.8538 4.91788V7.87271H16.3398C14.8483 7.87271 14.383 8.79833 14.383 9.7488V12.0001H17.7131L17.1807 15.4709H14.383V23.8612C20.1231 22.9604 24.5139 17.993 24.5139 12.0001Z" fill="white"></path>
  </g>
  <defs>
    <clipPath id="clip0_747_1385">
      <rect width="24.0139" height="24.0139" fill="white" transform="translate(0.5 -0.00683594)"></rect>
    </clipPath>
  </defs>
</svg>
