<?xml version="1.0" encoding="UTF-8"?>
<svg xmlns="http://www.w3.org/2000/svg" width="25" height="24" viewBox="0 0 25 24" fill="none">
  <g clip-path="url(#clip0_747_1386)">
    <path fill-rule="evenodd" clip-rule="evenodd" d="M12.5206 -0.00683594C9.26091 -0.00683594 8.85286 0.00723469 7.57244 0.0635172C6.2967 0.1198 5.41963 0.326169 4.65982 0.621652C3.86717 0.931206 3.19647 1.33925 2.53046 2.00995C1.85976 2.67596 1.45171 3.34666 1.14216 4.13462C0.846677 4.89912 0.640308 5.7715 0.584025 7.04724C0.527743 8.33236 0.513672 8.7404 0.513672 12.0001C0.513672 15.2598 0.527743 15.6678 0.584025 16.9483C0.640308 18.224 0.846677 19.1011 1.14216 19.8609C1.45171 20.6535 1.85976 21.3242 2.53046 21.9902C3.19647 22.6563 3.86717 23.069 4.65513 23.3739C5.41963 23.6693 6.29201 23.8757 7.56775 23.932C8.84817 23.9883 9.25622 24.0023 12.5159 24.0023C15.7756 24.0023 16.1837 23.9883 17.4641 23.932C18.7398 23.8757 19.6169 23.6693 20.3767 23.3739C21.1647 23.069 21.8354 22.6563 22.5014 21.9902C23.1674 21.3242 23.5801 20.6535 23.885 19.8656C24.1805 19.1011 24.3868 18.2287 24.4431 16.953C24.4994 15.6725 24.5135 15.2645 24.5135 12.0048C24.5135 8.7451 24.4994 8.33705 24.4431 7.05662C24.3868 5.78088 24.1805 4.90381 23.885 4.144C23.5895 3.34666 23.1815 2.67596 22.5108 2.00995C21.8447 1.34394 21.174 0.931206 20.3861 0.626342C19.6216 0.330859 18.7492 0.12449 17.4735 0.0682074C16.1884 0.0072347 15.7803 -0.00683594 12.5206 -0.00683594ZM12.5202 5.83252C9.11507 5.83252 6.35254 8.59505 6.35254 12.0001C6.35254 15.4052 9.11507 18.1678 12.5202 18.1678C15.9253 18.1678 18.6878 15.4052 18.6878 12.0001C18.6878 8.59505 15.9253 5.83252 12.5202 5.83252ZM12.5202 16.0009C10.3111 16.0009 8.51942 14.2092 8.51942 12.0001C8.51942 9.79106 10.3111 7.9994 12.5202 7.9994C14.7293 7.9994 16.5209 9.79106 16.5209 12.0001C16.5209 14.2092 14.7293 16.0009 12.5202 16.0009ZM18.9321 7.02823C19.7247 7.02823 20.372 6.38567 20.372 5.58833C20.372 4.79569 19.7247 4.14844 18.9321 4.14844C18.1394 4.14844 17.4922 4.791 17.4922 5.58833C17.4922 6.38098 18.1347 7.02823 18.9321 7.02823Z" fill="white"></path>
  </g>
  <defs>
    <clipPath id="clip0_747_1386">
      <rect width="24.0139" height="24.0139" fill="white" transform="translate(0.513672 -0.00683594)"></rect>
    </clipPath>
  </defs>
</svg>
