<?xml version="1.0" encoding="UTF-8"?>
<svg xmlns="http://www.w3.org/2000/svg" width="71" height="23" viewBox="0 0 71 23" fill="none">
  <path fill-rule="evenodd" clip-rule="evenodd" d="M10.7701 1.05957H11.3451C13.3417 1.10192 15.3055 1.88431 16.716 3.26938C16.1953 3.78749 15.6637 4.28443 15.1537 4.80241C14.3616 4.1047 13.4067 3.56542 12.3651 3.37512C10.8244 3.0579 9.16422 3.34336 7.87307 4.19986C6.46252 5.09845 5.50763 6.62102 5.30147 8.24919C5.07371 9.85636 5.54023 11.548 6.61436 12.7956C7.64517 14.0115 9.21856 14.7728 10.846 14.8257C12.3651 14.9102 13.9493 14.4555 15.056 13.4194C15.924 12.6899 16.3255 11.5798 16.4557 10.5014C14.6545 10.5014 12.8534 10.5118 11.0521 10.5014V8.3233H18.6366C19.0272 10.6599 18.463 13.2925 16.6401 14.9631C15.4249 16.1472 13.7431 16.8451 12.0288 16.9826C10.3686 17.1411 8.65426 16.8345 7.17866 16.0521C5.40999 15.1323 3.99944 13.578 3.30504 11.7489C2.65409 10.0678 2.64323 8.16462 3.25085 6.47294C3.80414 4.92932 4.86755 3.56542 6.23463 2.6139C7.54752 1.67283 9.1425 1.15472 10.7701 1.05957Z" fill="white"></path>
  <path fill-rule="evenodd" clip-rule="evenodd" d="M54.2803 1.61035H56.6022V16.7086C55.8318 16.7086 55.0506 16.7191 54.2803 16.698C54.291 11.6759 54.2803 6.6431 54.2803 1.61035Z" fill="white"></path>
  <path fill-rule="evenodd" clip-rule="evenodd" d="M23.801 6.84188C25.2333 6.57747 26.7849 6.87352 27.9676 7.70884C29.0417 8.44886 29.7905 9.61203 30.0183 10.8807C30.3113 12.3504 29.9423 13.9574 28.9658 15.1205C27.9134 16.4209 26.1882 17.1188 24.5063 17.013C22.9655 16.9284 21.4682 16.1778 20.5568 14.9513C19.5261 13.5979 19.2765 11.7371 19.8406 10.1512C20.4049 8.44886 21.9999 7.14853 23.801 6.84188ZM24.1266 8.85067C23.5406 8.99877 22.9981 9.32647 22.6075 9.79175C21.555 11.0181 21.6202 13.0165 22.7811 14.1583C23.443 14.8139 24.4412 15.1205 25.3635 14.9407C26.2206 14.7927 26.9693 14.2324 27.3817 13.4922C28.0978 12.2341 27.8917 10.5002 26.7958 9.51688C26.0905 8.88246 25.0597 8.61818 24.1266 8.85067Z" fill="white"></path>
  <path fill-rule="evenodd" clip-rule="evenodd" d="M35.3025 6.84263C36.9409 6.536 38.7312 6.98002 39.9573 8.10076C41.9539 9.84527 42.1708 13.1124 40.4673 15.1213C39.4365 16.39 37.7656 17.0878 36.1163 17.0137C34.5431 16.9715 32.9914 16.2103 32.0582 14.952C31.0058 13.567 30.7779 11.6639 31.3747 10.0462C31.9714 8.39684 33.534 7.1387 35.3025 6.84263ZM35.6281 8.85142C35.0421 8.99952 34.4996 9.32716 34.109 9.78191C33.0674 10.9873 33.1108 12.9538 34.2284 14.1062C34.8902 14.7935 35.921 15.1319 36.8759 14.9415C37.7221 14.7829 38.4817 14.2332 38.894 13.493C39.5993 12.2243 39.3932 10.4903 38.2865 9.50705C37.5812 8.87258 36.5503 8.61887 35.6281 8.85142Z" fill="white"></path>
  <path fill-rule="evenodd" clip-rule="evenodd" d="M45.0569 7.45617C46.3048 6.69492 47.9648 6.48344 49.3103 7.13905C49.7335 7.31876 50.0806 7.62542 50.417 7.93202L50.4278 7.05448L52.6196 7.06494V16.3904C52.6087 17.7965 52.2399 19.2873 51.1982 20.313C50.0588 21.4442 48.312 21.7932 46.7386 21.5605C45.0569 21.3174 43.592 20.1226 42.9411 18.6107C43.592 18.3041 44.2757 18.0609 44.9484 17.7755C45.3281 18.6424 46.0986 19.3825 47.0642 19.5517C48.0299 19.7209 49.1474 19.4882 49.7768 18.7058C50.4495 17.9023 50.4495 16.8028 50.417 15.8195C49.9179 16.2953 49.3427 16.7181 48.6483 16.8767C47.1401 17.2891 45.4801 16.7816 44.319 15.7877C43.1472 14.7938 42.4529 13.2608 42.5179 11.7383C42.5505 10.0148 43.5487 8.35487 45.0569 7.45617ZM47.303 8.80957C46.641 8.91529 46.0225 9.27473 45.5994 9.77168C44.5795 10.9559 44.5795 12.8484 45.6102 14.0115C46.1962 14.6987 47.1401 15.0793 48.0516 14.9842C48.9088 14.8996 49.7008 14.3709 50.124 13.6414C50.8402 12.4043 50.7208 10.7232 49.7551 9.6448C49.1583 8.97871 48.2035 8.65089 47.303 8.80957Z" fill="white"></path>
  <path fill-rule="evenodd" clip-rule="evenodd" d="M59.3903 7.99514C60.6923 6.81099 62.6996 6.40921 64.3705 7.03303C65.9549 7.61455 66.9639 9.0842 67.4735 10.5962C65.119 11.5477 62.7755 12.4887 60.4211 13.4403C60.7466 14.043 61.2458 14.5927 61.9184 14.8147C62.8625 15.1424 63.9905 15.0263 64.783 14.413C65.0978 14.1803 65.3469 13.8737 65.5858 13.5777L67.3764 14.7406C66.5296 15.9778 65.1081 16.8448 63.5786 16.9822C61.8858 17.1832 60.0847 16.5487 58.9888 15.2588C57.1877 13.2288 57.3612 9.82423 59.3903 7.99514ZM60.5513 9.95117C60.1824 10.4693 60.0305 11.1036 60.0413 11.7274C61.6146 11.0931 63.1878 10.4587 64.7613 9.81376C64.5008 9.22172 63.8717 8.86211 63.2312 8.76696C62.2005 8.58725 61.1263 9.1264 60.5513 9.95117Z" fill="white"></path>
</svg>
